{
    "asset" : {
        "generator" : "Khronos glTF Blender I/O v1.6.16",
        "version" : "2.0"
    },
    "scene" : 0,
    "scenes" : [
        {
            "name" : "Scene",
            "nodes" : [
                0,
                1,
                2,
                3,
                4,
                5,
                6,
                7,
                8
            ]
        }
    ],
    "nodes" : [
        {
            "name" : "Cube",
            "scale" : [
                11.572548866271973,
                1,
                -12.882756233215332
            ]
        },
        {
            "mesh" : 0,
            "name" : "\u0426\u0438\u043b\u0438\u043d\u0434\u0440",
            "scale" : [
                1.1470870971679688,
                0.46064457297325134,
                1.1470870971679688
            ],
            "translation" : [
                0,
                0.4624501168727875,
                0
            ]
        },
        {
            "mesh" : 1,
            "name" : "\u041a\u043e\u043d\u0443\u0441"
        },
        {
            "mesh" : 2,
            "name" : "\u0426\u0438\u043b\u0438\u043d\u0434\u0440.001",
            "translation" : [
                0,
                1.8422871828079224,
                0
            ]
        },
        {
            "mesh" : 3,
            "name" : "\u041f\u043b\u043e\u0441\u043a\u043e\u0441\u0442\u044c",
            "scale" : [
                6.300463676452637,
                6.300463676452637,
                6.300463676452637
            ]
        },
        {
            "name" : "\u0418\u0441\u0442\u043e\u0447\u043d\u0438\u043a-\u043e\u0431\u043b\u0430\u0441\u0442\u044c",
            "scale" : [
                12.594584465026855,
                12.594584465026855,
                12.594584465026855
            ],
            "translation" : [
                0,
                7.613808631896973,
                0
            ]
        },
        {
            "name" : "\u0418\u0441\u0442\u043e\u0447\u043d\u0438\u043a-\u043e\u0431\u043b\u0430\u0441\u0442\u044c.001",
            "rotation" : [
                0.6084790229797363,
                0,
                0,
                0.7935701012611389
            ],
            "scale" : [
                3.647681474685669,
                3.647681713104248,
                3.647681713104248
            ],
            "translation" : [
                0,
                3.7652523517608643,
                8.138139724731445
            ]
        },
        {
            "name" : "\u0418\u0441\u0442\u043e\u0447\u043d\u0438\u043a-\u043e\u0431\u043b\u0430\u0441\u0442\u044c.002",
            "rotation" : [
                0,
                0,
                0.6115408539772034,
                0.7912128567695618
            ],
            "scale" : [
                3.6772589683532715,
                3.6772589683532715,
                3.6772589683532715
            ],
            "translation" : [
                -9.031573295593262,
                3.470301389694214,
                0
            ]
        },
        {
            "name" : "\u041a\u0430\u043c\u0435\u0440\u0430",
            "rotation" : [
                0.6154972314834595,
                -0.24073180556297302,
                0.22025595605373383,
                0.7174249887466431
            ],
            "translation" : [
                -9.306709289550781,
                4.38067102432251,
                11.682760238647461
            ]
        }
    ],
    "materials" : [
        {
            "doubleSided" : true,
            "name" : "\u041c\u0430\u0442\u0435\u0440\u0438\u0430\u043b.002",
            "pbrMetallicRoughness" : {
                "baseColorFactor" : [
                    0.23129324615001678,
                    0.3159426748752594,
                    0.7632825374603271,
                    1
                ],
                "metallicFactor" : 0,
                "roughnessFactor" : 0.09600000083446503
            }
        },
        {
            "doubleSided" : true,
            "name" : "\u041c\u0430\u0442\u0435\u0440\u0438\u0430\u043b.003",
            "pbrMetallicRoughness" : {
                "metallicFactor" : 0,
                "roughnessFactor" : 0.5
            }
        },
        {
            "doubleSided" : true,
            "name" : "\u041c\u0430\u0442\u0435\u0440\u0438\u0430\u043b",
            "pbrMetallicRoughness" : {
                "baseColorFactor" : [
                    0.8000000715255737,
                    0.3437165915966034,
                    0.13682356476783752,
                    1
                ],
                "metallicFactor" : 0,
                "roughnessFactor" : 0.5
            }
        },
        {
            "doubleSided" : true,
            "name" : "\u041c\u0430\u0442\u0435\u0440\u0438\u0430\u043b.001",
            "pbrMetallicRoughness" : {
                "baseColorFactor" : [
                    0.015192567370831966,
                    0.05811126530170441,
                    0,
                    1
                ],
                "metallicFactor" : 0,
                "roughnessFactor" : 0.5
            }
        }
    ],
    "meshes" : [
        {
            "name" : "\u0426\u0438\u043b\u0438\u043d\u0434\u0440",
            "primitives" : [
                {
                    "attributes" : {
                        "POSITION" : 0,
                        "NORMAL" : 1,
                        "TEXCOORD_0" : 2
                    },
                    "indices" : 3,
                    "material" : 0
                },
                {
                    "attributes" : {
                        "POSITION" : 4,
                        "NORMAL" : 5,
                        "TEXCOORD_0" : 6
                    },
                    "indices" : 7,
                    "material" : 1
                }
            ]
        },
        {
            "name" : "\u041a\u043e\u043d\u0443\u0441",
            "primitives" : [
                {
                    "attributes" : {
                        "POSITION" : 8,
                        "NORMAL" : 9,
                        "TEXCOORD_0" : 10
                    },
                    "indices" : 11,
                    "material" : 2
                }
            ]
        },
        {
            "name" : "\u0426\u0438\u043b\u0438\u043d\u0434\u0440.001",
            "primitives" : [
                {
                    "attributes" : {
                        "POSITION" : 12,
                        "NORMAL" : 13,
                        "TEXCOORD_0" : 14
                    },
                    "indices" : 15,
                    "material" : 3
                }
            ]
        },
        {
            "name" : "\u041f\u043b\u043e\u0441\u043a\u043e\u0441\u0442\u044c",
            "primitives" : [
                {
                    "attributes" : {
                        "POSITION" : 16,
                        "NORMAL" : 17,
                        "TEXCOORD_0" : 18
                    },
                    "indices" : 19
                }
            ]
        }
    ],
    "accessors" : [
        {
            "bufferView" : 0,
            "componentType" : 5126,
            "count" : 186,
            "max" : [
                1.0500339269638062,
                1,
                1.0327457189559937
            ],
            "min" : [
                -1.0500339269638062,
                -1,
                -1.0558178424835205
            ],
            "type" : "VEC3"
        },
        {
            "bufferView" : 1,
            "componentType" : 5126,
            "count" : 186,
            "type" : "VEC3"
        },
        {
            "bufferView" : 2,
            "componentType" : 5126,
            "count" : 186,
            "type" : "VEC2"
        },
        {
            "bufferView" : 3,
            "componentType" : 5123,
            "count" : 849,
            "type" : "SCALAR"
        },
        {
            "bufferView" : 4,
            "componentType" : 5126,
            "count" : 30,
            "max" : [
                0.7948426008224487,
                0.8673939108848572,
                0.7817559242248535
            ],
            "min" : [
                -0.7948426008224487,
                0.7450492978096008,
                -0.7992208003997803
            ],
            "type" : "VEC3"
        },
        {
            "bufferView" : 5,
            "componentType" : 5126,
            "count" : 30,
            "type" : "VEC3"
        },
        {
            "bufferView" : 6,
            "componentType" : 5126,
            "count" : 30,
            "type" : "VEC2"
        },
        {
            "bufferView" : 7,
            "componentType" : 5123,
            "count" : 129,
            "type" : "SCALAR"
        },
        {
            "bufferView" : 8,
            "componentType" : 5126,
            "count" : 12,
            "max" : [
                0.029184460639953613,
                0.016849655658006668,
                0.37330979108810425
            ],
            "min" : [
                -0.02918452024459839,
                -0.03369934484362602,
                -1.626690149307251
            ],
            "type" : "VEC3"
        },
        {
            "bufferView" : 9,
            "componentType" : 5126,
            "count" : 12,
            "type" : "VEC3"
        },
        {
            "bufferView" : 10,
            "componentType" : 5126,
            "count" : 12,
            "type" : "VEC2"
        },
        {
            "bufferView" : 11,
            "componentType" : 5123,
            "count" : 12,
            "type" : "SCALAR"
        },
        {
            "bufferView" : 12,
            "componentType" : 5126,
            "count" : 995,
            "max" : [
                0.9805207252502441,
                1.294999599456787,
                0.9805206060409546
            ],
            "min" : [
                -0.980520486831665,
                -1.2949997186660767,
                -0.9805206656455994
            ],
            "type" : "VEC3"
        },
        {
            "bufferView" : 13,
            "componentType" : 5126,
            "count" : 995,
            "type" : "VEC3"
        },
        {
            "bufferView" : 14,
            "componentType" : 5126,
            "count" : 995,
            "type" : "VEC2"
        },
        {
            "bufferView" : 15,
            "componentType" : 5123,
            "count" : 4788,
            "type" : "SCALAR"
        },
        {
            "bufferView" : 16,
            "componentType" : 5126,
            "count" : 19,
            "max" : [
                1,
                1.204431414604187,
                1
            ],
            "min" : [
                -1,
                0,
                -1
            ],
            "type" : "VEC3"
        },
        {
            "bufferView" : 17,
            "componentType" : 5126,
            "count" : 19,
            "type" : "VEC3"
        },
        {
            "bufferView" : 18,
            "componentType" : 5126,
            "count" : 19,
            "type" : "VEC2"
        },
        {
            "bufferView" : 19,
            "componentType" : 5123,
            "count" : 66,
            "type" : "SCALAR"
        }
    ],
    "bufferViews" : [
        {
            "buffer" : 0,
            "byteLength" : 2232,
            "byteOffset" : 0
        },
        {
            "buffer" : 0,
            "byteLength" : 2232,
            "byteOffset" : 2232
        },
        {
            "buffer" : 0,
            "byteLength" : 1488,
            "byteOffset" : 4464
        },
        {
            "buffer" : 0,
            "byteLength" : 1698,
            "byteOffset" : 5952
        },
        {
            "buffer" : 0,
            "byteLength" : 360,
            "byteOffset" : 7652
        },
        {
            "buffer" : 0,
            "byteLength" : 360,
            "byteOffset" : 8012
        },
        {
            "buffer" : 0,
            "byteLength" : 240,
            "byteOffset" : 8372
        },
        {
            "buffer" : 0,
            "byteLength" : 258,
            "byteOffset" : 8612
        },
        {
            "buffer" : 0,
            "byteLength" : 144,
            "byteOffset" : 8872
        },
        {
            "buffer" : 0,
            "byteLength" : 144,
            "byteOffset" : 9016
        },
        {
            "buffer" : 0,
            "byteLength" : 96,
            "byteOffset" : 9160
        },
        {
            "buffer" : 0,
            "byteLength" : 24,
            "byteOffset" : 9256
        },
        {
            "buffer" : 0,
            "byteLength" : 11940,
            "byteOffset" : 9280
        },
        {
            "buffer" : 0,
            "byteLength" : 11940,
            "byteOffset" : 21220
        },
        {
            "buffer" : 0,
            "byteLength" : 7960,
            "byteOffset" : 33160
        },
        {
            "buffer" : 0,
            "byteLength" : 9576,
            "byteOffset" : 41120
        },
        {
            "buffer" : 0,
            "byteLength" : 228,
            "byteOffset" : 50696
        },
        {
            "buffer" : 0,
            "byteLength" : 228,
            "byteOffset" : 50924
        },
        {
            "buffer" : 0,
            "byteLength" : 152,
            "byteOffset" : 51152
        },
        {
            "buffer" : 0,
            "byteLength" : 132,
            "byteOffset" : 51304
        }
    ],
    "buffers" : [
        {
            "byteLength" : 51436,
            "uri" : "data:application/octet-stream;base64,"
        }
    ]
}
